<?xml version="1.0" encoding="UTF-8" standalone="no"?>
<!-- Created with Inkscape (http://www.inkscape.org/) -->

<svg
   width="22.5"
   height="19.756001"
   viewBox="0 0 5.9531248 5.2271086"
   version="1.1"
   id="svg24006"
   inkscape:version="1.1.2 (b8e25be833, 2022-02-05)"
   sodipodi:docname="heart-icon.svg"
   xmlns:inkscape="http://www.inkscape.org/namespaces/inkscape"
   xmlns:sodipodi="http://sodipodi.sourceforge.net/DTD/sodipodi-0.dtd"
   xmlns="http://www.w3.org/2000/svg"
   xmlns:svg="http://www.w3.org/2000/svg">
  <sodipodi:namedview
     id="namedview24008"
     pagecolor="#505050"
     bordercolor="#eeeeee"
     borderopacity="1"
     inkscape:pageshadow="0"
     inkscape:pageopacity="0"
     inkscape:pagecheckerboard="0"
     inkscape:document-units="mm"
     showgrid="false"
     units="px"
     inkscape:zoom="32"
     inkscape:cx="11.765625"
     inkscape:cy="10.296875"
     inkscape:window-width="1920"
     inkscape:window-height="1001"
     inkscape:window-x="-9"
     inkscape:window-y="-9"
     inkscape:window-maximized="1"
     inkscape:current-layer="layer1" />
  <defs
     id="defs24003" />
  <g
     inkscape:label="Layer 1"
     inkscape:groupmode="layer"
     id="layer1">
    <path
       fill="#6563ff"
       d="m 5.3853905,0.55377674 a 1.8534985,1.8535717 0 0 0 -2.40454,-0.1886 1.847605,1.847678 0 0 0 -2.40453996,2.79362006 l 1.82992996,1.83294 a 0.81919327,0.81922564 0 0 0 1.14922,0 l 1.82993,-1.83294 a 1.847605,1.847678 0 0 0 0,-2.60502006 z m -0.4155,2.19835006 -1.82992,1.83 a 0.22395211,0.22396096 0 0 1 -0.31825,0 l -1.82991997,-1.83884 a 1.2641508,1.2642007 0 0 1 0,-1.76811006 1.2582573,1.258307 0 0 1 1.76803997,0 0.29467384,0.29468548 0 0 0 0.41845,0 1.2582573,1.258307 0 0 1 1.76804,0 1.2641508,1.2642007 0 0 1 0.0236,1.76811006 z"
       id="path86472"
       style="display:inline;mix-blend-mode:normal;fill:#191919;fill-opacity:1;stroke-width:0.264583"
       inkscape:export-filename="D:\DARICK T FISHER\2.png"
       inkscape:export-xdpi="200"
       inkscape:export-ydpi="200" />
  </g>
</svg>
