<?xml version="1.0" encoding="UTF-8" standalone="no"?>
<!-- Created with Inkscape (http://www.inkscape.org/) -->

<svg
   width="16.976"
   height="16.976"
   viewBox="0 0 4.4915664 4.4915667"
   version="1.1"
   id="svg18232"
   inkscape:version="1.1.2 (b8e25be833, 2022-02-05)"
   sodipodi:docname="instagram-icon.svg"
   xmlns:inkscape="http://www.inkscape.org/namespaces/inkscape"
   xmlns:sodipodi="http://sodipodi.sourceforge.net/DTD/sodipodi-0.dtd"
   xmlns="http://www.w3.org/2000/svg"
   xmlns:svg="http://www.w3.org/2000/svg">
  <sodipodi:namedview
     id="namedview18234"
     pagecolor="#505050"
     bordercolor="#eeeeee"
     borderopacity="1"
     inkscape:pageshadow="0"
     inkscape:pageopacity="0"
     inkscape:pagecheckerboard="0"
     inkscape:document-units="mm"
     showgrid="false"
     units="px"
     inkscape:zoom="23.775084"
     inkscape:cx="5.6151221"
     inkscape:cy="10.452119"
     inkscape:window-width="1920"
     inkscape:window-height="1001"
     inkscape:window-x="-9"
     inkscape:window-y="-9"
     inkscape:window-maximized="1"
     inkscape:current-layer="layer1"
     height="16.976px" />
  <defs
     id="defs18229">
    <clipPath
       clipPathUnits="userSpaceOnUse"
       id="clipPath289991-4-8-8-1-9-9-8-8-31-7-6-0-4">
      <path
         d="M 0,734 H 936 V 0 H 0 Z"
         id="path289989-3-1-4-1-2-6-6-9-9-3-7-3-4" />
    </clipPath>
  </defs>
  <g
     inkscape:label="Layer 1"
     inkscape:groupmode="layer"
     id="layer1">
    <path
       d="m 1.4091209,0.13109475 c -0.70737237,0 -1.28288598,0.57419328 -1.28288598,1.27993975 v 1.6694976 c 0,0.7057535 0.57551361,1.2799398 1.28288598,1.2799398 h 1.6733249 c 0.7073724,0 1.2828859,-0.5741863 1.2828859,-1.2799398 V 1.4110345 c 0,-0.70574647 -0.5755135,-1.27993975 -1.2828859,-1.27993975 z M 3.3613368,0.9101844 c 0.1232679,0 0.2231029,0.0996083 0.2231029,0.2226105 0,0.1228685 -0.099842,0.222597 -0.2231029,0.222597 -0.1232679,0 -0.22311,-0.099714 -0.22311,-0.222597 0,-0.1229881 0.099842,-0.2226105 0.22311,-0.2226105 z M 2.2457869,1.1327949 c 0.6151134,0 1.1155499,0.4992913 1.1155499,1.1129986 0,0.6137081 -0.5004365,1.1129783 -1.1155499,1.1129783 -0.6151206,0 -1.115557,-0.4992702 -1.115557,-1.1129783 0,-0.6137073 0.5004364,-1.1129986 1.115557,-1.1129986 z m 0,0.3339027 a 0.78088573,0.77909567 0 1 0 0,1.5581857 0.78088573,0.77909567 0 1 0 0,-1.5581857 z"
       id="path88218"
       style="display:inline;mix-blend-mode:normal;fill:#ffffff;fill-opacity:1;stroke-width:0.264584" />
  </g>
</svg>
