<?xml version="1.0" encoding="UTF-8" standalone="no"?>
<!-- Created with Inkscape (http://www.inkscape.org/) -->

<svg
   width="118.797"
   height="108.797"
   viewBox="0 0 31.431703 28.785873"
   version="1.1"
   id="svg14606"
   inkscape:version="1.1.2 (b8e25be833, 2022-02-05)"
   sodipodi:docname="logo.svg"
   xmlns:inkscape="http://www.inkscape.org/namespaces/inkscape"
   xmlns:sodipodi="http://sodipodi.sourceforge.net/DTD/sodipodi-0.dtd"
   xmlns="http://www.w3.org/2000/svg"
   xmlns:svg="http://www.w3.org/2000/svg">
  <sodipodi:namedview
     id="namedview14608"
     pagecolor="#505050"
     bordercolor="#eeeeee"
     borderopacity="1"
     inkscape:pageshadow="0"
     inkscape:pageopacity="0"
     inkscape:pagecheckerboard="0"
     inkscape:document-units="mm"
     showgrid="false"
     height="106.797mm"
     units="px"
     inkscape:zoom="2.9718855"
     inkscape:cx="64.773693"
     inkscape:cy="53.669631"
     inkscape:window-width="1920"
     inkscape:window-height="1001"
     inkscape:window-x="-9"
     inkscape:window-y="-9"
     inkscape:window-maximized="1"
     inkscape:current-layer="layer1" />
  <defs
     id="defs14603">
    <clipPath
       clipPathUnits="userSpaceOnUse"
       id="clipPath289991-4-8-8-1-9-9-8-8-31-7-6">
      <path
         d="M 0,734 H 936 V 0 H 0 Z"
         id="path289989-3-1-4-1-2-6-6-9-9-3-7" />
    </clipPath>
  </defs>
  <g
     inkscape:label="Layer 1"
     inkscape:groupmode="layer"
     id="layer1">
    <g
       id="g287702"
       inkscape:export-filename="D:\DARICK T FISHER\update screens 1\New folder\1.2.png"
       inkscape:export-xdpi="200"
       inkscape:export-ydpi="200"
       transform="matrix(0.28420846,0.05452086,-0.05397817,0.28137958,-263.85524,-66.64433)"
       style="display:inline;mix-blend-mode:normal;fill:#191919;fill-opacity:1;stroke-width:3.47287">
      <g
         id="g287700"
         inkscape:label="F.A.T (logo)"
         transform="matrix(0.15203441,-0.02940734,-0.02940734,-0.15203441,940.98904,162.59961)"
         style="mix-blend-mode:normal;fill:#191919;fill-opacity:1;stroke-width:7.91179"
         inkscape:export-filename="D:\DARICK T FISHER\update screens 1\2.1.png"
         inkscape:export-xdpi="200"
         inkscape:export-ydpi="200">
        <path
           d="m 579.645,271.775 h -28.21 v 29.414 h 28.21 z"
           style="fill:#191919;fill-opacity:1;fill-rule:nonzero;stroke:none;stroke-width:7.91179"
           id="path287480" />
        <path
           d="m 372.64,271.775 h -28.21 v 29.414 h 28.21 z"
           style="fill:#191919;fill-opacity:1;fill-rule:nonzero;stroke:none;stroke-width:7.91179"
           id="path287482" />
        <g
           id="g287486"
           transform="translate(229.645,451.3906)"
           style="fill:#191919;fill-opacity:1;stroke-width:7.91179">
          <path
             d="M 0,0 V -34.728 H 10.964 V -149.876 H 0 v -29.739 h 58.892 v 29.739 H 47.656 v 41.517 h 27.365 v 36.22 H 47.656 v 37.411 h 24.642 l 0.271,-17.522 h 35.215 V 0 Z"
             style="fill:#191919;fill-opacity:1;fill-rule:nonzero;stroke:none;stroke-width:7.91179"
             id="path287484" />
        </g>
        <g
           id="g287490"
           transform="translate(451.252,337.6396)"
           style="fill:#191919;fill-opacity:1;stroke-width:7.91179">
          <path
             d="M 0,0 H 22.863 L 11.432,48.353 Z m -49.666,-35.831 h 6.949 L -8.355,113.751 H 31.501 L 65.716,-36.125 h 8.592 V -65.864 H 20.813 v 29.434 h 8.759 l -2.463,14.065 H -3.286 l -1.92,-14.065 h 8.764 v -29.434 h -53.224 z"
             style="fill:#191919;fill-opacity:1;fill-rule:nonzero;stroke:none;stroke-width:7.91179"
             id="path287488" />
        </g>
        <g
           id="g287494"
           transform="translate(593.4912,451.3906)"
           style="fill:#191919;fill-opacity:1;stroke-width:7.91179">
          <path
             d="m 0,0 v -54.615 h 33.406 v 16.323 H 40.26 V -150.181 H 26.024 v -29.434 h 62.431 v 30.033 H 74.49 v 110.997 h 6.576 v -15.747 h 33.373 V 0 L -3,0.116"
             style="fill:#191919;fill-opacity:1;fill-rule:nonzero;stroke:none;stroke-width:7.91179"
             id="path287492" />
        </g>
        <g
           id="g287698"
           style="fill:#191919;fill-opacity:1;stroke-width:7.91179">
          <g
             id="g287696"
             clip-path="url(#clipPath289991-4-8-8-1-9-9-8-8-31-7-6)"
             style="fill:#191919;fill-opacity:1;stroke-width:7.91179">
            <g
               id="g287498"
               transform="translate(163.7856,472.4902)"
               style="fill:#191919;fill-opacity:1;stroke-width:7.91179">
              <path
                 d="m 0,0 c -3.665,0 -21.975,-1.154 -21.975,-23.891 l -0.004,-176.06 c -0.005,-0.094 -0.559,-9.506 5.589,-16.069 4.048,-4.322 10.124,-6.517 18.05,-6.517 h 605.113 c 7.926,0 14.002,2.195 18.049,6.517 6.143,6.563 5.596,15.975 5.59,16.069 l -0.004,0.094 V -23.891 C 630.408,-1.154 612.094,0 608.428,0 c -0.237,0 -0.377,-0.019 -0.393,-0.019 H 0.463 C 0.383,-0.019 0.241,0 0,0 M 606.773,-225.412 H 1.66 c -8.767,0 -15.548,2.516 -20.164,7.463 -6.805,7.291 -6.393,17.222 -6.336,18.138 v 175.92 c 0,25.99 22.305,26.747 24.84,26.747 0.35,0 0.534,-0.01 0.534,-0.01 l 607.435,0.01 h 0.459 c 2.539,0 24.845,-0.757 24.845,-26.747 v -175.92 c 0.057,-0.916 0.469,-10.847 -6.335,-18.138 -4.616,-4.947 -11.397,-7.463 -20.165,-7.463"
                 style="fill:#191919;fill-opacity:1;fill-rule:nonzero;stroke:none;stroke-width:7.91179"
                 id="path287496" />
            </g>
            <g
               id="g287502"
               transform="translate(798.1938,247.5801)"
               style="fill:#191919;fill-opacity:1;stroke-width:7.91179">
              <path
                 d="m 0,0 c -4.17,-4.445 -10.488,-6.705 -18.768,-6.705 h -622.847 c -8.28,0 -14.597,2.26 -18.768,6.705 -6.327,6.744 -5.788,16.504 -5.784,16.598 l 0.01,0.095 v 192.48 c 0,23.605 18.934,24.798 22.731,24.798 h 626.463 c 3.803,0 22.736,-1.193 22.736,-24.798 V 16.787 l 0.01,-0.189 C 5.787,16.504 6.326,6.744 0,0 m 11.506,16.883 v 192.29 c 0,29.677 -25.551,30.538 -28.469,30.538 -0.264,0 -0.459,-0.01 -0.557,-0.019 h -34.199 c -0.047,0.089 -0.095,0.178 -0.142,0.268 h -7.752 c 0.049,-0.09 0.099,-0.179 0.148,-0.268 H -69.77 c -0.05,0.089 -0.103,0.178 -0.154,0.268 h -2.381 c 0.053,-0.09 0.106,-0.179 0.159,-0.268 h -42.342 c -0.065,0.089 -0.131,0.178 -0.196,0.268 h -2.517 c 0.064,-0.09 0.133,-0.179 0.197,-0.268 h -7.519 c -0.069,0.09 -0.141,0.177 -0.209,0.268 h -8.641 c 0.072,-0.091 0.148,-0.178 0.221,-0.268 h -393.837 c 0.072,0.09 0.148,0.177 0.22,0.268 h -8.645 c -0.069,-0.091 -0.142,-0.178 -0.21,-0.268 h -7.523 c 0.064,0.089 0.131,0.178 0.197,0.268 h -2.513 c -0.064,-0.09 -0.131,-0.179 -0.195,-0.268 h -42.337 c 0.051,0.089 0.104,0.178 0.156,0.268 h -2.385 c -0.051,-0.09 -0.104,-0.179 -0.155,-0.268 h -10.304 c 0.049,0.089 0.1,0.178 0.149,0.268 h -7.76 c -0.047,-0.09 -0.097,-0.179 -0.144,-0.268 h -34.425 c -0.1,0.009 -0.293,0.019 -0.563,0.019 -2.913,0 -28.468,-0.861 -28.468,-30.538 V 16.883 c -0.065,-1.326 -0.42,-12.504 7.283,-20.752 4.417,-4.744 10.531,-7.524 18.207,-8.32 H -50.65 c 0.941,0 1.822,-0.094 2.658,-0.249 h 29.224 c 9.957,0 17.694,2.875 22.991,8.569 7.703,8.248 7.349,19.426 7.283,20.752"
                 style="fill:#191919;fill-opacity:1;fill-rule:nonzero;stroke:none;stroke-width:7.91179"
                 id="path287500" />
            </g>
            <g
               id="g287506"
               transform="translate(154.7681,481.0508)"
               style="fill:#191919;fill-opacity:1;stroke-width:7.91179">
              <path
                 d="m 0,0 c -3.712,0 -22.231,-1.172 -22.231,-24.298 v -192.505 l -0.013,-0.121 c -0.018,-0.373 -0.416,-9.738 5.651,-16.205 4.077,-4.344 10.269,-6.547 18.404,-6.547 h 622.847 c 8.135,0 14.326,2.203 18.403,6.547 6.068,6.467 5.669,15.832 5.65,16.229 l -0.012,0.191 V -24.298 C 648.699,-1.172 630.178,0 626.463,0 Z M 624.658,-240.676 H 1.811 c -8.422,0 -14.86,2.309 -19.133,6.863 -6.355,6.774 -5.94,16.549 -5.919,16.961 l 0.012,0.125 -0.002,192.429 C -23.231,-0.22 -3.879,1 0,1 h 626.463 c 3.881,0 23.236,-1.22 23.236,-25.298 v -192.386 l 0.01,-0.164 c 0.021,-0.416 0.436,-10.191 -5.918,-16.965 -4.273,-4.554 -10.711,-6.863 -19.133,-6.863 m -31.883,-4.484 c 0.918,0 1.819,-0.084 2.748,-0.256 l 29.135,0.008 c 9.822,0 17.434,2.83 22.623,8.41 7.537,8.068 7.213,19.148 7.151,20.385 v 192.315 c 0,29.195 -25.106,30.038 -27.969,30.038 -0.244,0 -0.422,-0.009 -0.514,-0.016 l -34.545,-0.002 -0.14,0.267 h -6.608 l 0.147,-0.267 h -11.436 l -0.154,0.267 h -1.223 l 0.155,-0.267 h -43.463 l -0.194,0.267 h -1.277 l 0.195,-0.267 h -8.75 l -0.207,0.267 h -7.347 l 0.214,-0.267 H 115.393 l 0.215,0.267 h -7.353 L 108.05,5.722 H 99.294 L 99.49,5.989 H 98.217 L 98.024,5.722 H 54.565 L 54.719,5.989 53.48,5.972 53.335,5.722 H 41.898 L 42.045,5.989 35.431,5.988 35.29,5.722 H 0.563 C 0.426,5.731 0.249,5.74 0,5.74 c -2.863,0 -27.968,-0.843 -27.968,-30.038 v -192.29 c -0.062,-1.262 -0.384,-12.346 7.148,-20.41 4.315,-4.633 10.334,-7.381 17.894,-8.166 z m 31.883,-1.248 h -29.224 c -0.961,0.17 -1.801,0.248 -2.659,0.248 H -2.978 c -7.858,0.812 -14.09,3.664 -18.573,8.48 -7.813,8.364 -7.48,19.836 -7.416,21.116 l -0.001,192.266 C -28.968,5.869 -2.965,6.74 0,6.74 0.291,6.74 0.499,6.729 0.607,6.72 l 34.082,0.003 0.141,0.266 h 8.906 l -0.147,-0.267 9.179,0.015 0.144,0.252 h 3.54 L 56.298,6.722 h 41.216 l 0.192,0.267 h 3.752 l -0.195,-0.267 h 6.296 l 0.204,0.267 h 9.93 L 117.48,6.722 h 391.749 l -0.213,0.267 h 9.925 l 0.205,-0.267 h 6.292 l -0.196,0.267 h 3.756 l 0.193,-0.267 h 41.219 l -0.154,0.267 h 3.537 l 0.152,-0.267 h 9.172 l -0.144,0.267 h 8.896 l 0.139,-0.267 h 33.898 c 0.063,0.007 0.272,0.018 0.557,0.018 2.965,0 28.969,-0.871 28.969,-31.038 v -192.29 c 0.062,-1.256 0.4,-12.725 -7.418,-21.092 -5.387,-5.791 -13.244,-8.728 -23.356,-8.728"
                 style="fill:#191919;fill-opacity:1;fill-rule:nonzero;stroke:none;stroke-width:7.91179"
                 id="path287504" />
            </g>
            <g
               id="g287510"
               transform="translate(223.6992,511.3438)"
               style="fill:#191919;fill-opacity:1;stroke-width:7.91179">
              <path
                 d="m 0,0 11.211,16.822 7.866,-1.25 -0.329,-2.797 C 17.576,12.85 16.408,12.73 15.242,12.415 14.076,12.1 12.996,11.604 12.002,10.925 11.008,10.246 10.189,9.424 9.544,8.457 8.422,6.771 8.439,5.544 9.595,4.773 l 3.672,-2.447 c 0.095,0.186 0.299,0.516 0.61,0.993 0.311,0.478 0.538,0.872 0.681,1.185 0.143,0.312 0.217,0.639 0.224,0.98 -0.042,0.754 -0.795,1.664 -2.258,2.729 l 1.493,2.24 9.556,-6.369 -1.45,-2.176 C 20.994,2.496 20.149,2.856 19.589,2.991 19.029,3.126 18.545,3.069 18.139,2.822 17.707,2.599 17.216,2.075 16.667,1.252 l -0.55,-0.826 4.322,-2.88 c 0.972,-0.648 1.757,-0.833 2.357,-0.555 0.192,0.06 0.473,0.255 0.844,0.589 0.371,0.333 0.73,0.761 1.078,1.283 l 2.412,-1.608 -7.077,-10.618 -2.411,1.606 c 0.13,0.237 0.269,0.489 0.415,0.755 0.146,0.266 0.265,0.549 0.359,0.85 0.093,0.3 0.109,0.602 0.048,0.906 -0.122,0.447 -0.782,1.07 -1.978,1.867 l -9.94,6.625 C 5.991,-0.384 5.529,-0.133 5.161,-0.002 4.792,0.13 4.407,0.092 4.005,-0.117 3.402,-0.421 2.871,-0.918 2.412,-1.606 Z"
                 style="fill:#191919;fill-opacity:1;fill-rule:nonzero;stroke:none;stroke-width:7.91179"
                 id="path287508" />
            </g>
            <g
               id="g287514"
               transform="translate(253.5259,532.0625)"
               style="fill:#191919;fill-opacity:1;stroke-width:7.91179">
              <path
                 d="m 0,0 3.344,4.111 -6.938,2.273 z m 0.309,-13.512 c 0.599,0.901 0.888,1.78 0.867,2.638 -0.021,0.858 -0.345,1.878 -0.973,3.056 l -8.976,16.736 3.474,4.271 17.645,-5.462 c 1.34,-0.423 2.255,-0.678 2.747,-0.767 0.491,-0.089 0.906,-0.049 1.242,0.118 0.336,0.168 0.92,0.59 1.75,1.264 L 20.334,6.513 12.17,-3.523 9.919,-1.693 c 0.179,0.248 0.357,0.498 0.533,0.752 0.177,0.253 0.336,0.514 0.478,0.785 0.142,0.27 0.222,0.531 0.241,0.783 C 11.19,0.878 11.099,1.086 10.898,1.249 10.541,1.539 10.14,1.779 9.695,1.967 9.25,2.154 8.667,2.359 7.946,2.582 7.226,2.805 6.74,2.963 6.489,3.055 L 1.718,-2.811 3.239,-5.416 c 0.215,-0.411 0.508,-0.816 0.881,-1.217 0.303,-0.12 0.586,-0.155 0.849,-0.105 0.262,0.049 0.521,0.164 0.774,0.342 0.254,0.18 0.52,0.411 0.798,0.693 0.277,0.282 0.488,0.494 0.633,0.636 l 2.252,-1.831 -6.868,-8.444 z"
                 style="fill:#191919;fill-opacity:1;fill-rule:nonzero;stroke:none;stroke-width:7.91179"
                 id="path287512" />
            </g>
            <g
               id="g287518"
               transform="translate(259.894,554.2637)"
               style="fill:#191919;fill-opacity:1;stroke-width:7.91179">
              <path
                 d="M 0,0 -2.081,2.006 6.714,11.131 8.795,9.125 C 8.748,9.051 8.561,8.803 8.233,8.38 7.905,7.957 7.677,7.592 7.548,7.284 7.419,6.977 7.405,6.639 7.506,6.271 7.606,5.902 7.872,5.51 8.303,5.096 l 9.747,-9.395 c 0.592,-0.571 1.159,-0.826 1.701,-0.765 0.542,0.06 1.285,0.556 2.228,1.484 l 2.087,-2.012 -8.795,-9.126 -2.088,2.012 c 0.478,0.561 0.829,1.042 1.053,1.441 0.225,0.399 0.306,0.792 0.244,1.179 -0.062,0.388 -0.311,0.791 -0.745,1.21 L 4.037,0.471 C 3.532,0.957 3.091,1.242 2.715,1.324 2.34,1.407 1.969,1.348 1.602,1.146 1.236,0.943 0.702,0.562 0,0"
                 style="fill:#191919;fill-opacity:1;fill-rule:nonzero;stroke:none;stroke-width:7.91179"
                 id="path287516" />
            </g>
            <g
               id="g287522"
               transform="translate(274.8789,563.5391)"
               style="fill:#191919;fill-opacity:1;stroke-width:7.91179">
              <path
                 d="m 0,0 -2.711,7.357 14.522,12.768 6.948,-3.631 -1.204,-2.472 c -0.943,0.358 -1.904,0.617 -2.884,0.778 -0.98,0.161 -1.934,0.161 -2.863,0.003 C 10.878,14.645 10.072,14.266 9.39,13.665 9.161,13.464 9.187,13.203 9.468,12.884 L 18.983,2.062 C 19.48,1.496 19.93,1.121 20.332,0.939 20.734,0.756 21.17,0.757 21.64,0.941 c 0.47,0.184 1.063,0.571 1.777,1.161 l 1.915,-2.178 -9.688,-8.518 -1.914,2.178 c 0.873,0.768 1.386,1.468 1.541,2.102 0.106,0.384 0.086,0.73 -0.061,1.037 -0.147,0.306 -0.447,0.716 -0.899,1.23 L 4.75,8.828 C 4.534,9.074 4.374,9.151 4.271,9.061 4.163,9.035 4.003,8.929 3.792,8.742 3.139,8.169 2.699,7.439 2.471,6.554 2.242,5.668 2.159,4.76 2.222,3.832 2.284,2.902 2.414,1.92 2.612,0.885 Z"
                 style="fill:#191919;fill-opacity:1;fill-rule:nonzero;stroke:none;stroke-width:7.91179"
                 id="path287520" />
            </g>
            <g
               id="g287526"
               transform="translate(293.0825,588.9766)"
               style="fill:#191919;fill-opacity:1;stroke-width:7.91179">
              <path
                 d="M 0,0 10.276,7.195 11.939,4.82 C 10.281,3.66 9.917,2.413 10.85,1.082 l 2.407,-3.437 7.061,4.943 -2.244,3.205 c -1.041,1.486 -2.41,1.637 -4.106,0.448 l -1.663,2.375 10.305,7.216 1.662,-2.375 c -0.623,-0.514 -1.072,-0.941 -1.347,-1.281 -0.274,-0.34 -0.409,-0.721 -0.403,-1.146 0.005,-0.425 0.212,-0.928 0.622,-1.512 l 7.558,-10.794 c 0.62,-0.886 1.223,-1.281 1.81,-1.186 0.586,0.095 1.325,0.423 2.217,0.984 l 1.703,-2.431 -10.305,-7.216 -1.663,2.375 c 0.645,0.543 1.084,0.935 1.316,1.175 0.232,0.239 0.371,0.577 0.417,1.013 0.046,0.436 -0.142,0.956 -0.564,1.559 l -3.41,4.87 -7.118,-4.984 3.287,-4.694 c 0.349,-0.499 0.69,-0.851 1.021,-1.058 0.331,-0.207 0.736,-0.263 1.216,-0.166 0.48,0.097 1.082,0.386 1.807,0.865 l 1.662,-2.375 -10.276,-7.195 -1.663,2.375 c 1.07,0.868 1.649,1.561 1.736,2.079 0.168,0.462 -0.099,1.194 -0.802,2.197 L 5.699,-2.527 C 5.188,-1.798 4.621,-1.469 4,-1.538 3.378,-1.608 2.599,-1.887 1.663,-2.375 Z"
                 style="fill:#191919;fill-opacity:1;fill-rule:nonzero;stroke:none;stroke-width:7.91179"
                 id="path287524" />
            </g>
            <g
               id="g287530"
               transform="translate(321.0996,608.0098)"
               style="fill:#191919;fill-opacity:1;stroke-width:7.91179">
              <path
                 d="M 0,0 17.728,9.715 24.12,4.963 22.532,2.637 C 21.529,3.246 20.438,3.681 19.259,3.941 18.079,4.202 16.892,4.262 15.697,4.121 14.501,3.98 13.395,3.631 12.375,3.072 10.6,2.1 10.046,1.003 10.714,-0.216 l 2.12,-3.869 c 0.171,0.12 0.505,0.319 1.001,0.598 0.497,0.278 0.881,0.523 1.152,0.734 0.272,0.211 0.49,0.466 0.654,0.765 0.311,0.688 0.066,1.843 -0.738,3.465 L 17.264,2.77 22.783,-7.301 20.49,-8.557 c -0.729,1.043 -1.31,1.754 -1.744,2.133 -0.434,0.379 -0.889,0.553 -1.364,0.522 -0.486,0.002 -1.164,-0.235 -2.031,-0.709 l -0.87,-0.478 2.496,-4.555 c 0.561,-1.024 1.172,-1.551 1.832,-1.583 0.197,-0.037 0.537,0.007 1.021,0.131 0.483,0.123 0.999,0.336 1.549,0.637 l 1.393,-2.542 -11.19,-6.133 -1.394,2.542 c 0.227,0.15 0.466,0.309 0.718,0.477 0.253,0.168 0.49,0.363 0.712,0.586 0.222,0.223 0.376,0.484 0.463,0.78 0.099,0.454 -0.197,1.311 -0.888,2.572 L 5.452,-3.701 C 5.131,-3.116 4.838,-2.68 4.573,-2.393 4.307,-2.105 3.948,-1.962 3.495,-1.961 2.82,-1.95 2.119,-2.145 1.393,-2.542 Z"
                 style="fill:#191919;fill-opacity:1;fill-rule:nonzero;stroke:none;stroke-width:7.91179"
                 id="path287528" />
            </g>
            <g
               id="g287534"
               transform="translate(346.3149,621.5469)"
               style="fill:#191919;fill-opacity:1;stroke-width:7.91179">
              <path
                 d="M 0,0 11.245,4.709 12.298,2.016 C 12.2,1.938 12.001,1.813 11.701,1.645 11.4,1.475 11.146,1.308 10.938,1.143 10.729,0.977 10.57,0.781 10.459,0.554 c -0.297,-0.511 -0.273,-1.178 0.071,-2 l 4.317,-10.306 c 0.515,-1.231 1.325,-2.077 2.431,-2.537 1.105,-0.46 2.326,-0.41 3.662,0.149 1.359,0.607 2.257,1.454 2.693,2.54 0.436,1.087 0.368,2.313 -0.203,3.676 L 19.28,1.984 C 18.916,2.854 18.512,3.387 18.069,3.582 17.614,3.865 16.754,3.789 15.49,3.353 L 14.373,6.019 23.183,9.708 24.33,6.971 24.067,6.86 C 22.369,6.149 21.875,4.947 22.583,3.256 l 4.208,-9.848 c 1.156,-2.758 1.162,-5.056 0.02,-6.894 -1.143,-1.838 -2.972,-3.306 -5.488,-4.403 -1.734,-0.726 -3.379,-1.139 -4.933,-1.238 -1.555,-0.1 -2.936,0.193 -4.146,0.878 -1.209,0.685 -2.135,1.794 -2.777,3.327 l -4.67,11.15 C 4.476,-3.004 4.033,-2.569 3.472,-2.471 2.91,-2.373 2.148,-2.428 1.188,-2.637 Z"
                 style="fill:#191919;fill-opacity:1;fill-rule:nonzero;stroke:none;stroke-width:7.91179"
                 id="path287532" />
            </g>
            <g
               id="g287538"
               transform="translate(376.0293,630.4326)"
               style="fill:#191919;fill-opacity:1;stroke-width:7.91179">
              <path
                 d="M 0,0 -0.838,2.767 11.037,6.362 11.875,3.597 C 11.792,3.554 11.51,3.429 11.032,3.224 10.553,3.019 10.185,2.814 9.928,2.61 9.671,2.406 9.499,2.12 9.409,1.75 9.32,1.38 9.362,0.909 9.535,0.337 l 3.821,-12.618 c 0.102,-0.335 0.159,-0.601 0.17,-0.796 0.195,-0.506 0.441,-0.828 0.739,-0.967 0.297,-0.139 0.839,-0.105 1.625,0.096 1.2,0.363 2.285,0.976 3.256,1.839 0.972,0.862 1.782,1.897 2.431,3.106 0.65,1.21 1.114,2.503 1.395,3.88 l 2.653,-0.485 -1.08,-9.118 -18.398,-5.572 -0.84,2.776 c 1.008,0.382 1.686,0.779 2.034,1.187 0.347,0.409 0.398,1.022 0.151,1.836 l -3.97,12.87 C 3.314,-0.94 3.078,-0.468 2.813,-0.212 2.549,0.045 2.248,0.175 1.907,0.177 1.567,0.179 0.931,0.12 0,0"
                 style="fill:#191919;fill-opacity:1;fill-rule:nonzero;stroke:none;stroke-width:7.91179"
                 id="path287536" />
            </g>
            <g
               id="g287542"
               transform="translate(442.2202,634.8838)"
               style="fill:#191919;fill-opacity:1;stroke-width:7.91179">
              <path
                 d="m 0,0 5.281,0.433 -3.163,6.58 z m -9.538,-9.577 c 1.064,0.191 1.899,0.592 2.504,1.201 0.605,0.609 1.116,1.549 1.532,2.817 l 5.863,18.064 5.488,0.449 8.272,-16.515 c 0.623,-1.258 1.072,-2.096 1.349,-2.512 0.277,-0.416 0.592,-0.688 0.946,-0.815 0.354,-0.127 1.062,-0.256 2.123,-0.388 l 0.237,-2.889 -12.894,-1.057 -0.237,2.892 c 0.302,0.042 0.606,0.087 0.911,0.136 0.305,0.048 0.604,0.114 0.897,0.199 0.293,0.084 0.537,0.207 0.732,0.367 0.194,0.16 0.281,0.369 0.26,0.628 -0.037,0.459 -0.143,0.914 -0.315,1.365 -0.173,0.45 -0.428,1.013 -0.766,1.688 -0.339,0.675 -0.561,1.134 -0.668,1.38 l -7.535,-0.618 -0.827,-2.902 c -0.149,-0.439 -0.238,-0.932 -0.269,-1.477 0.123,-0.302 0.293,-0.531 0.511,-0.687 0.218,-0.155 0.479,-0.262 0.784,-0.32 0.305,-0.06 0.656,-0.092 1.052,-0.097 0.395,-0.005 0.694,-0.011 0.897,-0.017 l 0.237,-2.892 -10.847,-0.889 z"
                 style="fill:#191919;fill-opacity:1;fill-rule:nonzero;stroke:none;stroke-width:7.91179"
                 id="path287540" />
            </g>
            <g
               id="g287546"
               transform="translate(482.0029,648.3008)"
               style="fill:#191919;fill-opacity:1;stroke-width:7.91179">
              <path
                 d="M 0,0 2.122,-0.051 5.038,-8.494 2.324,-9.388 c -1.048,1.942 -2.193,3.55 -3.437,4.825 -1.245,1.277 -2.718,1.934 -4.42,1.975 -1.455,0.034 -2.652,-0.406 -3.592,-1.322 -0.939,-0.916 -1.619,-2.069 -2.041,-3.457 -0.42,-1.39 -0.654,-2.8 -0.699,-4.233 -0.022,-1.392 0.139,-2.727 0.483,-4.004 0.344,-1.278 0.899,-2.38 1.665,-3.308 0.767,-0.928 1.744,-1.572 2.932,-1.934 0.452,-0.086 0.911,-0.166 1.375,-0.24 1.428,0.006 2.856,0.434 4.285,1.28 1.43,0.847 2.697,2.242 3.802,4.185 l 2.863,-1.588 c -1.055,-2.465 -2.666,-4.314 -4.835,-5.551 -2.17,-1.236 -4.529,-1.824 -7.076,-1.764 -2.605,0.061 -4.993,0.792 -7.164,2.188 -1.653,1.104 -2.934,2.627 -3.84,4.57 -0.906,1.944 -1.356,4.032 -1.349,6.264 0.056,1.16 0.239,2.311 0.547,3.447 0.309,1.139 0.759,2.219 1.35,3.244 0.591,1.025 1.307,1.932 2.149,2.724 0.682,0.634 1.471,1.165 2.368,1.593 0.896,0.428 1.838,0.737 2.827,0.93 0.988,0.192 1.988,0.276 3.001,0.252 2.398,-0.057 4.411,-0.565 6.039,-1.524 z"
                 style="fill:#191919;fill-opacity:1;fill-rule:nonzero;stroke:none;stroke-width:7.91179"
                 id="path287544" />
            </g>
            <g
               id="g287550"
               transform="translate(512.853,645.1992)"
               style="fill:#191919;fill-opacity:1;stroke-width:7.91179">
              <path
                 d="M 0,0 2.104,-0.277 4.097,-8.984 1.303,-9.582 c -0.833,2.043 -1.8,3.765 -2.9,5.166 -1.1,1.402 -2.494,2.215 -4.182,2.437 -1.443,0.191 -2.68,-0.119 -3.712,-0.929 -1.033,-0.811 -1.833,-1.883 -2.401,-3.219 -0.567,-1.335 -0.951,-2.713 -1.15,-4.132 -0.17,-1.382 -0.153,-2.726 0.051,-4.034 0.205,-1.307 0.638,-2.462 1.301,-3.467 0.662,-1.004 1.565,-1.75 2.708,-2.237 0.44,-0.134 0.887,-0.263 1.341,-0.386 1.419,-0.146 2.885,0.124 4.398,0.813 1.512,0.688 2.921,1.939 4.228,3.752 l 2.676,-1.885 c -1.312,-2.338 -3.113,-4.004 -5.403,-5 -2.29,-0.997 -4.698,-1.328 -7.224,-0.995 -2.583,0.341 -4.879,1.322 -6.887,2.944 -1.526,1.275 -2.635,2.928 -3.328,4.957 -0.693,2.028 -0.916,4.152 -0.67,6.371 0.181,1.149 0.486,2.272 0.915,3.369 0.429,1.098 0.993,2.125 1.69,3.08 0.698,0.956 1.507,1.782 2.429,2.478 0.746,0.558 1.588,1 2.525,1.329 0.937,0.329 1.907,0.536 2.91,0.621 1.004,0.086 2.007,0.062 3.011,-0.07 2.378,-0.315 4.325,-1.035 5.841,-2.164 z"
                 style="fill:#191919;fill-opacity:1;fill-rule:nonzero;stroke:none;stroke-width:7.91179"
                 id="path287548" />
            </g>
            <g
               id="g287554"
               transform="translate(537.2876,637.1641)"
               style="fill:#191919;fill-opacity:1;stroke-width:7.91179">
              <path
                 d="m 0,0 c -0.958,0.203 -1.869,0.164 -2.734,-0.115 -0.864,-0.281 -1.651,-0.756 -2.361,-1.428 -0.71,-0.672 -1.332,-1.492 -1.867,-2.462 -0.535,-0.97 -0.962,-2.035 -1.28,-3.195 -0.389,-1.564 -0.538,-3.085 -0.446,-4.564 0.092,-1.478 0.474,-2.756 1.147,-3.83 0.673,-1.074 1.643,-1.781 2.911,-2.121 0.056,0.01 0.109,0.021 0.159,0.031 1.235,-0.283 2.409,-0.129 3.523,0.463 1.114,0.592 2.098,1.567 2.952,2.926 0.854,1.359 1.523,3.01 2.007,4.953 0.318,1.565 0.371,3.002 0.161,4.315 C 3.962,-3.715 3.5,-2.619 2.787,-1.742 2.074,-0.865 1.145,-0.284 0,0 M 0.586,3.535 C 2.483,3.063 4.145,2.332 5.572,1.34 7,0.347 8.149,-0.824 9.022,-2.174 c 0.874,-1.348 1.44,-2.805 1.7,-4.369 0.259,-1.564 0.195,-3.131 -0.196,-4.699 -0.437,-1.759 -1.138,-3.322 -2.101,-4.693 -0.963,-1.37 -2.127,-2.497 -3.494,-3.38 -1.366,-0.884 -2.876,-1.49 -4.531,-1.816 -1.654,-0.326 -3.375,-0.342 -5.161,-0.045 -0.213,0.03 -0.536,0.098 -0.972,0.205 -1.725,0.43 -3.255,1.139 -4.59,2.125 -1.335,0.987 -2.419,2.178 -3.252,3.573 -0.832,1.396 -1.371,2.904 -1.617,4.527 -0.246,1.623 -0.171,3.265 0.225,4.926 0.068,0.084 0.113,0.17 0.135,0.259 0.554,1.985 1.518,3.775 2.893,5.37 1.375,1.593 3.136,2.755 5.283,3.487 2.148,0.731 4.562,0.811 7.242,0.239"
                 style="fill:#191919;fill-opacity:1;fill-rule:nonzero;stroke:none;stroke-width:7.91179"
                 id="path287552" />
            </g>
            <g
               id="g287558"
               transform="translate(556.8062,634.957)"
               style="fill:#191919;fill-opacity:1;stroke-width:7.91179">
              <path
                 d="m 0,0 11.423,-4.26 -1.075,-2.683 c -0.125,0.009 -0.355,0.054 -0.69,0.136 -0.335,0.082 -0.635,0.135 -0.9,0.157 C 8.493,-6.629 8.243,-6.662 8.006,-6.752 7.44,-6.922 7.001,-7.424 6.69,-8.26 L 2.786,-18.729 c -0.467,-1.25 -0.454,-2.421 0.037,-3.513 0.492,-1.092 1.416,-1.891 2.773,-2.397 1.406,-0.487 2.64,-0.484 3.702,0.01 1.061,0.494 1.85,1.434 2.367,2.819 l 3.753,10.066 c 0.33,0.883 0.4,1.548 0.21,1.993 -0.138,0.519 -0.817,1.051 -2.038,1.599 l 1.01,2.707 8.949,-3.337 -1.037,-2.781 -0.266,0.1 c -1.725,0.643 -2.908,0.105 -3.549,-1.615 l -3.669,-10.059 c -1.045,-2.802 -2.613,-4.484 -4.704,-5.043 -2.09,-0.558 -4.428,-0.377 -7.014,0.545 -1.762,0.656 -3.244,1.481 -4.445,2.473 -1.201,0.99 -2.009,2.15 -2.422,3.476 -0.414,1.327 -0.33,2.77 0.251,4.327 l 4.224,11.326 c 0.291,0.781 0.266,1.4 -0.077,1.857 -0.342,0.455 -0.935,0.936 -1.778,1.441 z"
                 style="fill:#191919;fill-opacity:1;fill-rule:nonzero;stroke:none;stroke-width:7.91179"
                 id="path287556" />
            </g>
            <g
               id="g287562"
               transform="translate(590.6855,594.3711)"
               style="fill:#191919;fill-opacity:1;stroke-width:7.91179">
              <path
                 d="M 0,0 -1.612,21.572 -7.375,9.955 C -7.672,9.365 -7.837,8.881 -7.869,8.504 -7.9,8.127 -7.762,7.762 -7.455,7.407 -7.146,7.053 -6.594,6.637 -5.798,6.159 l -1.302,-2.59 -8.433,4.24 1.302,2.59 c 0.658,-0.279 1.205,-0.464 1.642,-0.555 0.438,-0.091 0.832,-0.049 1.183,0.125 0.352,0.174 0.663,0.531 0.934,1.07 l 6.051,12.033 c 0.317,0.633 0.465,1.137 0.442,1.516 -0.022,0.379 -0.181,0.711 -0.478,0.998 -0.296,0.288 -0.813,0.678 -1.55,1.171 L -4.708,29.34 4.542,24.688 5.567,8.635 9.28,16.02 c 0.365,0.724 0.524,1.296 0.477,1.715 -0.047,0.419 -0.189,0.731 -0.425,0.933 -0.236,0.203 -0.77,0.597 -1.603,1.183 l 1.299,2.583 8.526,-4.288 -1.298,-2.582 c -1.013,0.418 -1.8,0.617 -2.362,0.594 -0.563,-0.023 -1.037,-0.418 -1.421,-1.183 L 3.946,-1.984 Z"
                 style="fill:#191919;fill-opacity:1;fill-rule:nonzero;stroke:none;stroke-width:7.91179"
                 id="path287560" />
            </g>
            <g
               id="g287566"
               transform="translate(608.8066,603.7773)"
               style="fill:#191919;fill-opacity:1;stroke-width:7.91179">
              <path
                 d="m 0,0 6.33,4.627 16.263,-10.459 -1.584,-7.679 -2.707,0.48 c 0.085,1.005 0.07,2 -0.044,2.986 -0.114,0.986 -0.375,1.904 -0.783,2.754 -0.408,0.851 -0.994,1.521 -1.758,2.014 -0.256,0.164 -0.499,0.068 -0.73,-0.29 L 7.192,-17.688 c -0.407,-0.633 -0.643,-1.168 -0.709,-1.605 -0.065,-0.436 0.055,-0.855 0.362,-1.258 0.305,-0.401 0.84,-0.865 1.603,-1.389 l -1.568,-2.439 -10.849,6.977 1.568,2.439 c 0.977,-0.629 1.792,-0.931 2.444,-0.906 0.398,0.004 0.726,0.118 0.98,0.344 0.254,0.226 0.567,0.627 0.937,1.202 L 9.792,-2.145 C 9.97,-1.869 10,-1.693 9.884,-1.619 9.83,-1.522 9.685,-1.398 9.447,-1.246 8.717,-0.775 7.894,-0.553 6.979,-0.576 6.065,-0.6 5.17,-0.77 4.294,-1.084 3.417,-1.399 2.509,-1.794 1.567,-2.269 Z"
                 style="fill:#191919;fill-opacity:1;fill-rule:nonzero;stroke:none;stroke-width:7.91179"
                 id="path287564" />
            </g>
            <g
               id="g287570"
               transform="translate(635.6846,579.249)"
               style="fill:#191919;fill-opacity:1;stroke-width:7.91179">
              <path
                 d="m 0,0 4.154,-3.29 2.182,6.967 z m -13.508,-0.483 c 0.908,-0.588 1.791,-0.866 2.65,-0.833 0.858,0.032 1.873,0.37 3.043,1.012 L 8.803,8.889 13.118,5.47 7.885,-12.244 c -0.406,-1.345 -0.649,-2.264 -0.731,-2.757 -0.082,-0.492 -0.037,-0.906 0.136,-1.24 0.172,-0.334 0.6,-0.912 1.285,-1.735 l -1.8,-2.271 -10.141,8.032 1.802,2.275 c 0.25,-0.176 0.501,-0.35 0.757,-0.524 0.256,-0.172 0.52,-0.328 0.792,-0.467 0.272,-0.138 0.534,-0.215 0.786,-0.23 0.251,-0.016 0.458,0.078 0.619,0.281 0.286,0.36 0.519,0.765 0.702,1.212 0.181,0.447 0.379,1.032 0.593,1.756 0.212,0.724 0.364,1.212 0.454,1.464 l -5.927,4.694 -2.585,-1.556 c -0.409,-0.218 -0.812,-0.517 -1.206,-0.895 -0.116,-0.305 -0.149,-0.588 -0.095,-0.851 0.053,-0.261 0.17,-0.518 0.354,-0.769 0.181,-0.252 0.416,-0.514 0.702,-0.788 0.285,-0.275 0.5,-0.484 0.643,-0.626 l -1.801,-2.275 -8.532,6.757 z"
                 style="fill:#191919;fill-opacity:1;fill-rule:nonzero;stroke:none;stroke-width:7.91179"
                 id="path287568" />
            </g>
            <g
               id="g287574"
               transform="translate(660.1045,561.9414)"
               style="fill:#191919;fill-opacity:1;stroke-width:7.91179">
              <path
                 d="m 0,0 c 0.621,-0.607 1.136,-1.145 1.544,-1.608 1.172,-1.083 2.256,-1.826 3.254,-2.227 0.996,-0.401 1.91,-0.179 2.739,0.668 0.246,0.251 0.42,0.46 0.519,0.628 C 8.937,-1.229 8.318,0.465 6.199,2.54 5.599,3.129 5.076,3.525 4.628,3.733 4.183,3.94 3.736,3.816 3.291,3.359 Z m -2.276,-2.324 -4.372,-4.464 c -0.253,-0.259 -0.39,-0.533 -0.409,-0.824 -0.019,-0.291 0.049,-0.583 0.203,-0.874 0.154,-0.291 0.331,-0.557 0.531,-0.797 0.2,-0.24 0.427,-0.514 0.683,-0.821 2.508,-2.319 4.741,-2.479 6.699,-0.48 0.702,0.809 1.014,1.617 0.936,2.43 -0.078,0.812 -0.37,1.558 -0.878,2.236 -0.508,0.678 -1.192,1.439 -2.055,2.284 z M 0.234,13.225 9.5,4.15 c 1.98,-1.939 3.248,-3.576 3.802,-4.908 0.43,-0.992 0.549,-2.078 0.36,-3.258 C 13.472,-5.195 13,-6.172 12.244,-6.945 10.66,-8.561 8.673,-9.007 6.283,-8.283 l -0.104,0.004 c 0.807,-1.322 1.09,-2.639 0.852,-3.95 -0.239,-1.312 -0.836,-2.458 -1.793,-3.435 -0.121,-0.123 -0.268,-0.256 -0.442,-0.395 -0.173,-0.14 -0.3,-0.252 -0.38,-0.334 -3.274,-2.265 -6.645,-1.701 -10.114,1.697 l -10.929,10.704 2.028,2.07 c 0.266,-0.172 0.549,-0.351 0.848,-0.539 0.299,-0.189 0.572,-0.336 0.822,-0.443 0.249,-0.108 0.504,-0.164 0.764,-0.17 0.334,0.004 0.972,0.486 1.913,1.448 l 8.73,8.913 c 0.599,0.613 0.849,1.228 0.75,1.845 -0.101,0.618 -0.439,1.293 -1.016,2.027 z"
                 style="fill:#191919;fill-opacity:1;fill-rule:nonzero;stroke:none;stroke-width:7.91179"
                 id="path287572" />
            </g>
            <g
               id="g287578"
               transform="translate(679.4263,551.9209)"
               style="fill:#191919;fill-opacity:1;stroke-width:7.91179">
              <path
                 d="m 0,0 2.219,1.853 7.953,-9.522 -2.219,-1.853 c -0.072,0.06 -0.295,0.269 -0.672,0.63 -0.375,0.36 -0.707,0.619 -0.996,0.776 C 5.998,-7.96 5.666,-7.913 5.291,-7.976 4.916,-8.038 4.498,-8.261 4.039,-8.644 l -10.117,-8.453 c -0.27,-0.224 -0.492,-0.381 -0.668,-0.466 -0.389,-0.377 -0.59,-0.731 -0.6,-1.058 -0.011,-0.328 0.231,-0.814 0.723,-1.458 0.805,-0.963 1.793,-1.723 2.967,-2.279 1.172,-0.557 2.443,-0.897 3.81,-1.022 1.367,-0.125 2.739,-0.047 4.116,0.234 l 0.591,-2.631 -8.814,-2.573 -12.324,14.753 2.226,1.859 c 0.746,-0.778 1.375,-1.246 1.889,-1.408 0.512,-0.16 1.096,0.034 1.748,0.579 l 10.293,8.688 c 0.551,0.461 0.894,0.862 1.027,1.206 0.133,0.344 0.133,0.672 0.002,0.986 C 0.777,-1.372 0.475,-0.811 0,0"
                 style="fill:#191919;fill-opacity:1;fill-rule:nonzero;stroke:none;stroke-width:7.91179"
                 id="path287576" />
            </g>
            <g
               id="g287582"
               transform="translate(699.0278,532.5908)"
               style="fill:#191919;fill-opacity:1;stroke-width:7.91179">
              <path
                 d="m 0,0 11.504,-16.969 -4.127,-6.936 -2.352,1.315 c 0.516,1.127 0.83,2.301 0.944,3.522 0.115,1.219 0.027,2.422 -0.264,3.604 -0.291,1.182 -0.775,2.274 -1.453,3.274 -0.549,0.808 -1.082,1.424 -1.602,1.847 -0.519,0.423 -1.078,0.433 -1.671,0.03 l -3.772,-2.557 0.354,-0.522 c 0.009,-0.013 0.189,-0.254 0.541,-0.721 0.351,-0.468 0.642,-0.818 0.871,-1.052 0.226,-0.234 0.463,-0.393 0.703,-0.471 0.683,-0.218 1.806,0.16 3.369,1.136 l 1.506,-2.222 -9.071,-6.148 -1.544,2.279 c 0.736,0.574 1.267,1.146 1.595,1.712 0.328,0.566 0.483,1.044 0.463,1.434 -0.06,0.549 -0.418,1.305 -1.068,2.267 l -0.354,0.521 -4.742,-3.214 c -0.152,-0.104 -0.283,-0.161 -0.394,-0.173 -0.456,-0.373 -0.749,-0.674 -0.877,-0.903 -0.131,-0.23 -0.127,-0.553 0.009,-0.968 0.244,-0.606 0.493,-1.137 0.744,-1.59 1.51,-2.055 3.112,-3.433 4.803,-4.135 1.656,-0.677 3.793,-1.036 6.41,-1.075 l 0.416,-2.751 -9.089,-1.461 -11.797,17.405 2.398,1.626 c 0.057,-0.052 0.215,-0.216 0.477,-0.495 0.261,-0.278 0.515,-0.5 0.763,-0.665 0.248,-0.166 0.514,-0.257 0.795,-0.274 0.502,-0.064 1.307,0.282 2.416,1.034 l 9.979,6.763 0.349,0.237 c 0.663,0.449 0.997,0.981 1.002,1.598 0.006,0.615 -0.203,1.307 -0.627,2.076 z"
                 style="fill:#191919;fill-opacity:1;fill-rule:nonzero;stroke:none;stroke-width:7.91179"
                 id="path287580" />
            </g>
            <g
               id="g287586"
               transform="translate(266.6211,184.7686)"
               style="fill:#191919;fill-opacity:1;stroke-width:7.91179">
              <path
                 d="m 0,0 12.091,5.566 23.538,-22.882 -5.221,-12.243 -4.344,1.709 c 0.481,1.645 0.792,3.305 0.934,4.985 0.141,1.679 0.016,3.295 -0.376,4.847 -0.392,1.551 -1.141,2.866 -2.247,3.94 -0.371,0.361 -0.809,0.283 -1.312,-0.235 L 6.01,-31.855 c -0.891,-0.918 -1.465,-1.729 -1.72,-2.432 -0.256,-0.705 -0.198,-1.443 0.176,-2.215 0.374,-0.771 1.107,-1.723 2.201,-2.853 l -3.431,-3.53 -15.703,15.266 3.431,3.529 c 1.414,-1.375 2.668,-2.152 3.762,-2.33 0.664,-0.129 1.247,-0.049 1.747,0.242 0.499,0.289 1.154,0.85 1.964,1.684 l 17.135,17.627 c 0.387,0.398 0.497,0.679 0.329,0.844 -0.058,0.177 -0.258,0.433 -0.601,0.767 -1.057,1.027 -2.351,1.676 -3.881,1.945 -1.53,0.268 -3.077,0.29 -4.64,0.059 C 5.214,-3.48 3.569,-3.83 1.843,-4.303 Z"
                 style="fill:#191919;fill-opacity:1;fill-rule:nonzero;stroke:none;stroke-width:7.91179"
                 id="path287584" />
            </g>
            <g
               id="g287590"
               transform="translate(311.2925,159.7002)"
               style="fill:#191919;fill-opacity:1;stroke-width:7.91179">
              <path
                 d="m 0,0 29.079,-19.125 -1.959,-13.561 -4.541,0.532 c 0.073,2.103 -0.198,4.148 -0.813,6.136 -0.615,1.989 -1.535,3.815 -2.76,5.479 -1.225,1.666 -2.694,3.062 -4.408,4.189 -1.387,0.912 -2.625,1.53 -3.715,1.856 -1.09,0.324 -1.969,-0.024 -2.64,-1.043 l -4.25,-6.461 0.893,-0.588 c 0.025,-0.018 0.464,-0.277 1.32,-0.781 0.854,-0.504 1.537,-0.865 2.048,-1.084 0.51,-0.219 0.981,-0.313 1.411,-0.279 1.213,0.101 2.727,1.427 4.542,3.972 l 3.806,-2.502 -10.222,-15.543 -3.904,2.567 c 0.779,1.381 1.242,2.623 1.388,3.724 0.146,1.102 0.077,1.951 -0.209,2.549 -0.452,0.822 -1.502,1.777 -3.15,2.859 l -0.894,0.588 -5.344,-8.125 c -0.172,-0.261 -0.34,-0.437 -0.505,-0.527 -0.474,-0.881 -0.737,-1.543 -0.79,-1.988 -0.052,-0.446 0.162,-0.949 0.645,-1.512 0.778,-0.791 1.512,-1.461 2.203,-2.01 3.706,-2.238 7.113,-3.357 10.223,-3.357 3.036,0.014 6.619,0.842 10.751,2.484 l 2.442,-4.043 -13.303,-8.205 -29.826,19.617 2.705,4.112 c 0.122,-0.045 0.478,-0.201 1.069,-0.467 0.591,-0.266 1.134,-0.447 1.631,-0.545 0.496,-0.1 0.971,-0.07 1.425,0.088 0.827,0.226 1.866,1.291 3.117,3.191 l 11.244,17.098 0.395,0.6 c 0.746,1.134 0.923,2.187 0.533,3.156 -0.391,0.97 -1.169,1.92 -2.334,2.849 z"
                 style="fill:#191919;fill-opacity:1;fill-rule:nonzero;stroke:none;stroke-width:7.91179"
                 id="path287588" />
            </g>
            <g
               id="g287594"
               transform="translate(358.1855,108.3291)"
               style="fill:#191919;fill-opacity:1;stroke-width:7.91179">
              <path
                 d="m 0,0 8.327,-3.406 0.272,12.39 z m -21.801,-7.164 c 1.758,-0.527 3.328,-0.565 4.714,-0.107 1.384,0.457 2.879,1.486 4.484,3.087 l 22.764,22.832 8.653,-3.539 -0.178,-31.359 c -0.026,-2.385 0.011,-3.998 0.11,-4.84 0.099,-0.842 0.367,-1.496 0.805,-1.959 0.438,-0.465 1.41,-1.205 2.915,-2.221 l -1.863,-4.556 -20.33,8.316 1.866,4.561 c 0.49,-0.17 0.984,-0.336 1.483,-0.496 0.498,-0.162 1.002,-0.291 1.511,-0.389 0.509,-0.098 0.972,-0.1 1.39,-0.006 0.418,0.092 0.711,0.342 0.877,0.75 0.296,0.723 0.487,1.492 0.572,2.309 0.086,0.814 0.132,1.863 0.139,3.142 0.006,1.282 0.023,2.149 0.051,2.602 l -11.881,4.859 -3.483,-3.756 c -0.564,-0.55 -1.078,-1.226 -1.543,-2.029 -0.047,-0.553 0.035,-1.029 0.245,-1.432 0.21,-0.402 0.523,-0.765 0.94,-1.089 0.416,-0.325 0.922,-0.641 1.518,-0.954 0.595,-0.312 1.043,-0.55 1.345,-0.716 l -1.865,-4.561 -17.102,6.996 z"
                 style="fill:#191919;fill-opacity:1;fill-rule:nonzero;stroke:none;stroke-width:7.91179"
                 id="path287592" />
            </g>
            <g
               id="g287598"
               transform="translate(430.5024,109.1885)"
               style="fill:#191919;fill-opacity:1;stroke-width:7.91179">
              <path
                 d="m 0,0 3.538,-0.688 2.482,-14.96 -4.797,-0.725 c -1.202,3.547 -2.662,6.564 -4.383,9.053 -1.72,2.49 -3.999,4.009 -6.837,4.56 -2.425,0.471 -4.554,0.072 -6.386,-1.193 -1.833,-1.268 -3.299,-3.002 -4.399,-5.207 -1.099,-2.205 -1.89,-4.5 -2.373,-6.885 -0.432,-2.324 -0.541,-4.605 -0.328,-6.842 0.212,-2.234 0.828,-4.238 1.847,-6.008 1.019,-1.771 2.471,-3.126 4.358,-4.07 0.733,-0.273 1.478,-0.537 2.234,-0.793 2.39,-0.394 4.902,-0.086 7.536,0.926 2.633,1.012 5.151,2.986 7.551,5.924 l 4.34,-3.471 c -2.464,-3.824 -5.687,-6.465 -9.669,-7.918 -3.983,-1.453 -8.098,-1.767 -12.345,-0.941 -4.343,0.842 -8.132,2.742 -11.368,5.697 -2.455,2.318 -4.165,5.23 -5.13,8.74 -0.965,3.51 -1.125,7.133 -0.479,10.867 0.423,1.928 1.056,3.799 1.896,5.616 0.84,1.816 1.9,3.498 3.18,5.047 1.281,1.546 2.737,2.863 4.371,3.947 1.322,0.869 2.794,1.533 4.415,1.994 1.622,0.461 3.288,0.711 4.996,0.754 1.709,0.041 3.408,-0.104 5.095,-0.43 3.998,-0.777 7.223,-2.199 9.677,-4.267 z"
                 style="fill:#191919;fill-opacity:1;fill-rule:nonzero;stroke:none;stroke-width:7.91179"
                 id="path287596" />
            </g>
            <g
               id="g287602"
               transform="translate(448.3643,106.2744)"
               style="fill:#191919;fill-opacity:1;stroke-width:7.91179">
              <path
                 d="m 0,0 21.296,0.346 0.08,-4.92 c -3.437,-0.057 -5.133,-1.465 -5.088,-4.225 l 0.115,-7.123 14.632,0.238 -0.108,6.641 c -0.05,3.08 -1.832,4.594 -5.347,4.535 L 25.5,0.414 46.854,0.76 46.934,-4.16 C 45.569,-4.291 44.531,-4.463 43.822,-4.68 43.112,-4.896 42.56,-5.305 42.165,-5.908 41.769,-6.51 41.581,-7.416 41.601,-8.625 l 0.362,-22.369 c 0.03,-1.836 0.502,-2.965 1.418,-3.389 0.915,-0.426 2.266,-0.666 4.055,-0.726 l 0.082,-5.037 -21.355,-0.348 -0.08,4.922 c 1.424,0.15 2.413,0.283 2.968,0.4 0.554,0.115 1.072,0.459 1.551,1.027 0.479,0.571 0.708,1.481 0.688,2.731 l -0.164,10.09 -14.749,-0.239 0.158,-9.724 c 0.017,-1.035 0.159,-1.858 0.428,-2.463 0.268,-0.605 0.787,-1.068 1.554,-1.389 0.767,-0.318 1.887,-0.486 3.363,-0.502 l 0.079,-4.92 -21.295,-0.345 -0.081,4.92 c 2.332,0.205 3.804,0.629 4.419,1.273 0.676,0.49 0.997,1.774 0.963,3.852 L 5.61,-8.975 C 5.586,-7.463 5.103,-6.459 4.163,-5.967 3.222,-5.475 1.861,-5.125 0.08,-4.92 Z"
                 style="fill:#191919;fill-opacity:1;fill-rule:nonzero;stroke:none;stroke-width:7.91179"
                 id="path287600" />
            </g>
            <g
               id="g287606"
               transform="translate(521.9814,90.6201)"
               style="fill:#191919;fill-opacity:1;stroke-width:7.91179">
              <path
                 d="M 0,0 8.788,1.926 1.974,12.279 Z m -13.875,-18.277 c 1.747,0.562 3.06,1.425 3.94,2.588 0.88,1.162 1.526,2.859 1.937,5.087 l 5.769,31.723 9.132,2 17.664,-25.91 c 1.333,-1.979 2.28,-3.285 2.84,-3.922 0.559,-0.637 1.151,-1.023 1.775,-1.156 0.625,-0.133 1.845,-0.19 3.661,-0.172 l 1.053,-4.809 -21.455,-4.701 -1.055,4.813 c 0.5,0.138 1,0.285 1.503,0.433 0.502,0.151 0.99,0.33 1.464,0.539 0.474,0.209 0.857,0.471 1.148,0.785 0.291,0.315 0.39,0.686 0.296,1.116 -0.168,0.763 -0.448,1.506 -0.84,2.224 -0.393,0.721 -0.95,1.61 -1.672,2.666 -0.722,1.059 -1.201,1.782 -1.435,2.17 l -12.539,-2.748 -0.734,-5.068 c -0.151,-0.774 -0.19,-1.623 -0.117,-2.549 0.275,-0.478 0.614,-0.826 1.015,-1.037 0.402,-0.213 0.866,-0.334 1.393,-0.363 0.526,-0.03 1.123,-0.004 1.79,0.076 0.667,0.082 1.172,0.14 1.514,0.176 l 1.055,-4.813 -18.049,-3.957 z"
                 style="fill:#191919;fill-opacity:1;fill-rule:nonzero;stroke:none;stroke-width:7.91179"
                 id="path287604" />
            </g>
            <g
               id="g287610"
               transform="translate(574.3579,105.6631)"
               style="fill:#191919;fill-opacity:1;stroke-width:7.91179">
              <path
                 d="m 0,0 4.229,-9.73 c 0.246,-0.563 0.591,-0.954 1.037,-1.168 0.445,-0.217 0.946,-0.297 1.504,-0.241 0.556,0.057 1.087,0.164 1.593,0.326 0.505,0.161 1.081,0.344 1.727,0.551 5.25,2.463 6.928,5.873 5.034,10.231 C 14.301,1.59 13.227,2.598 11.899,2.994 10.572,3.391 9.213,3.406 7.822,3.041 6.432,2.676 4.796,2.084 2.915,1.266 Z m -2.202,5.064 c 1.354,0.588 2.526,1.055 3.517,1.401 2.452,1.15 4.312,2.383 5.581,3.695 1.268,1.313 1.501,2.893 0.699,4.736 -0.238,0.547 -0.456,0.954 -0.657,1.217 -1.499,2.223 -4.558,2.332 -9.175,0.325 -1.309,-0.571 -2.269,-1.139 -2.88,-1.708 -0.611,-0.57 -0.7,-1.351 -0.268,-2.345 z m -20.652,8.815 20.191,8.777 c 4.317,1.877 7.701,2.826 10.151,2.848 1.835,0.041 3.62,-0.463 5.354,-1.514 1.736,-1.052 2.969,-2.42 3.701,-4.105 1.532,-3.52 0.963,-6.93 -1.701,-10.231 L 14.768,9.494 C 17.362,9.92 19.616,9.525 21.527,8.313 23.438,7.1 24.858,5.428 25.784,3.297 25.901,3.027 26.014,2.713 26.124,2.35 26.233,1.988 26.327,1.717 26.405,1.539 27.877,-5.059 24.834,-10 17.276,-13.287 l -23.818,-10.356 -1.962,4.514 c 0.441,0.311 0.905,0.639 1.391,0.988 0.487,0.352 0.894,0.688 1.222,1.012 0.328,0.322 0.579,0.688 0.754,1.094 0.208,0.527 -0.144,1.838 -1.055,3.933 l -8.445,19.426 c -0.58,1.334 -1.388,2.119 -2.423,2.358 -1.035,0.236 -2.314,0.134 -3.837,-0.303 z"
                 style="fill:#191919;fill-opacity:1;fill-rule:nonzero;stroke:none;stroke-width:7.91179"
                 id="path287608" />
            </g>
            <g
               id="g287614"
               transform="translate(599.1807,136.124)"
               style="fill:#191919;fill-opacity:1;stroke-width:7.91179">
              <path
                 d="M 0,0 -2.748,4.064 14.701,15.863 17.45,11.799 C 17.337,11.688 16.943,11.344 16.271,10.771 15.598,10.197 15.104,9.682 14.789,9.221 14.476,8.762 14.339,8.209 14.38,7.564 14.42,6.922 14.726,6.178 15.295,5.336 l 12.537,-18.541 c 0.333,-0.494 0.558,-0.897 0.674,-1.207 0.57,-0.723 1.132,-1.121 1.683,-1.195 0.552,-0.075 1.415,0.25 2.588,0.972 1.764,1.192 3.216,2.731 4.358,4.617 1.141,1.885 1.935,3.973 2.381,6.26 0.445,2.287 0.548,4.617 0.311,6.992 l 4.547,0.545 2.831,-15.326 -27.037,-18.281 -2.757,4.078 c 1.442,1.127 2.342,2.111 2.7,2.949 0.36,0.838 0.135,1.856 -0.675,3.053 L 6.531,-0.871 C 5.848,0.139 5.227,0.787 4.67,1.07 4.112,1.354 3.557,1.412 3.005,1.244 2.451,1.076 1.45,0.662 0,0"
                 style="fill:#191919;fill-opacity:1;fill-rule:nonzero;stroke:none;stroke-width:7.91179"
                 id="path287612" />
            </g>
            <g
               id="g287618"
               transform="translate(633.1377,165.7021)"
               style="fill:#191919;fill-opacity:1;stroke-width:7.91179">
              <path
                 d="M 0,0 24.803,24.418 37.65,19.656 36.177,15.328 C 34.136,15.84 32.08,16.006 30.008,15.82 27.934,15.637 25.955,15.121 24.07,14.271 22.186,13.424 20.512,12.281 19.051,10.842 17.867,9.678 17.003,8.596 16.457,7.6 15.91,6.602 16.064,5.668 16.922,4.799 l 5.426,-5.512 0.761,0.75 c 0.022,0.022 0.368,0.397 1.039,1.127 0.672,0.729 1.17,1.32 1.491,1.774 0.321,0.453 0.511,0.894 0.57,1.322 0.154,1.207 -0.823,2.965 -2.932,5.275 l 3.246,3.195 13.051,-13.257 -3.328,-3.278 c -1.188,1.051 -2.305,1.766 -3.352,2.139 -1.045,0.375 -1.891,0.484 -2.535,0.33 -0.899,-0.268 -2.052,-1.096 -3.457,-2.478 l -0.762,-0.75 6.822,-6.932 c 0.221,-0.223 0.358,-0.424 0.411,-0.604 0.761,-0.648 1.353,-1.045 1.777,-1.189 0.424,-0.147 0.961,-0.041 1.613,0.312 0.938,0.594 1.746,1.172 2.428,1.733 2.967,3.152 4.775,6.25 5.428,9.291 0.623,2.971 0.566,6.648 -0.174,11.031 l 4.467,1.541 5.23,-14.73 -25.439,-25.043 -3.453,3.506 c 0.069,0.111 0.297,0.425 0.68,0.949 0.384,0.521 0.676,1.013 0.877,1.478 0.201,0.465 0.271,0.936 0.213,1.412 -0.049,0.858 -0.872,2.096 -2.467,3.719 L 10.196,-3.508 9.692,-2.996 C 8.74,-2.029 7.749,-1.635 6.719,-1.813 5.688,-1.992 4.596,-2.553 3.442,-3.496 Z"
                 style="fill:#191919;fill-opacity:1;fill-rule:nonzero;stroke:none;stroke-width:7.91179"
                 id="path287616" />
            </g>
            <g
               id="g287622"
               transform="translate(253.5454,484.3994)"
               style="fill:#191919;fill-opacity:1;stroke-width:7.91179">
              <path
                 d="m 0,0 c 42.641,74.637 123.021,125.057 214.961,125.057 91.94,0 172.32,-50.42 214.961,-125.057 h 3.625 C 422.422,19.809 408.514,38.216 392.01,54.72 344.719,102.012 281.841,128.057 214.961,128.057 148.081,128.057 85.203,102.012 37.911,54.72 21.407,38.216 7.5,19.809 -3.625,0 Z"
                 style="fill:#191919;fill-opacity:1;fill-rule:nonzero;stroke:none;stroke-width:7.91179"
                 id="path287620" />
            </g>
            <g
               id="g287626"
               transform="translate(681.5122,236.4004)"
               style="fill:#191919;fill-opacity:1;stroke-width:7.91179">
              <path
                 d="m 0,0 c -43.111,-72.796 -122.446,-121.718 -213.006,-121.718 -90.56,0 -169.895,48.922 -213.007,121.718 h -3.659 c 10.793,-18.537 24.045,-35.81 39.616,-51.38 47.292,-47.293 110.17,-73.338 177.05,-73.338 66.881,0 129.758,26.045 177.049,73.338 C -20.384,-35.81 -7.135,-18.537 3.66,0 Z"
                 style="fill:#191919;fill-opacity:1;fill-rule:nonzero;stroke:none;stroke-width:7.91179"
                 id="path287624" />
            </g>
            <g
               id="g287630"
               transform="translate(194.7886,484.3994)"
               style="fill:#191919;fill-opacity:1;stroke-width:7.91179">
              <path
                 d="M 0,0 C 46.896,104.519 151.939,177.5 273.718,177.5 395.496,177.5 500.54,104.519 547.435,0 h 3.478 C 535.981,33.801 514.763,64.89 487.851,91.803 430.654,149 354.606,180.5 273.718,180.5 192.83,180.5 116.782,149 59.585,91.803 32.672,64.89 11.453,33.801 -3.477,0 Z"
                 style="fill:#191919;fill-opacity:1;fill-rule:nonzero;stroke:none;stroke-width:7.91179"
                 id="path287628" />
            </g>
            <g
               id="g287634"
               transform="translate(740.6899,236.4004)"
               style="fill:#191919;fill-opacity:1;stroke-width:7.91179">
              <path
                 d="m 0,0 c -47.621,-102.728 -151.709,-174.161 -272.184,-174.161 -120.474,0 -224.563,71.433 -272.183,174.161 h -3.492 c 14.838,-32.509 35.521,-62.44 61.543,-88.464 57.197,-57.197 133.244,-88.697 214.132,-88.697 80.889,0 156.936,31.5 214.133,88.697 C -32.029,-62.44 -11.346,-32.509 3.492,0 Z"
                 style="fill:#191919;fill-opacity:1;fill-rule:nonzero;stroke:none;stroke-width:7.91179"
                 id="path287632" />
            </g>
            <g
               id="g287638"
               transform="translate(273.4673,484.3994)"
               style="fill:#191919;fill-opacity:1;stroke-width:7.91179">
              <path
                 d="m 0,0 c 40.73,64.803 112.849,107.884 195.039,107.884 82.19,0 154.309,-43.081 195.039,-107.884 h 10.473 C 358.822,69.951 282.409,116.813 195.039,116.813 107.67,116.813 31.256,69.951 -10.473,0 Z"
                 style="fill:#191919;fill-opacity:1;fill-rule:nonzero;stroke:none;stroke-width:7.91179"
                 id="path287636" />
            </g>
            <g
               id="g287642"
               transform="translate(661.4072,236.4004)"
               style="fill:#191919;fill-opacity:1;stroke-width:7.91179">
              <path
                 d="m 0,0 c -41.088,-62.94 -112.131,-104.544 -192.901,-104.544 -80.77,0 -151.813,41.604 -192.9,104.544 h -10.581 c 42.147,-68.099 117.51,-113.474 203.481,-113.474 85.971,0 161.335,45.375 203.481,113.474 z"
                 style="fill:#191919;fill-opacity:1;fill-rule:nonzero;stroke:none;stroke-width:7.91179"
                 id="path287640" />
            </g>
            <g
               id="g287646"
               transform="translate(176.6958,484.3994)"
               style="fill:#191919;fill-opacity:1;stroke-width:7.91179">
              <path
                 d="M 0,0 H 7.408 C 55.09,109.802 164.473,186.605 291.811,186.605 419.149,186.605 528.531,109.802 576.213,0 h 9.146 C 537.172,114.56 423.888,195 291.811,195 159.699,195 46.392,114.518 -1.775,-0.089 -1.203,-0.031 -0.611,0 0,0"
                 style="fill:#191919;fill-opacity:1;fill-rule:nonzero;stroke:none;stroke-width:7.91179"
                 id="path287644" />
            </g>
            <g
               id="g287650"
               transform="translate(752.3228,236.4004)"
               style="fill:#191919;fill-opacity:1;stroke-width:7.91179">
              <path
                 d="m 0,0 c -47.988,-109.087 -156.998,-185.267 -283.816,-185.267 -126.82,0 -235.829,76.18 -283.816,185.267 h -8.995 c -0.06,0 -0.114,0.008 -0.173,0.008 48.504,-113.851 161.419,-193.669 292.984,-193.669 131.561,0 244.474,79.814 292.98,193.661 z"
                 style="fill:#191919;fill-opacity:1;fill-rule:nonzero;stroke:none;stroke-width:7.91179"
                 id="path287648" />
            </g>
            <g
               id="g287654"
               transform="translate(467.6958,575.3994)"
               style="fill:#191919;fill-opacity:1;stroke-width:7.91179">
              <path
                 d="M 0,0 8.834,-27.189 H 37.422 L 14.294,-43.992 23.128,-71.182 0,-54.377 l -23.128,-16.805 8.834,27.19 -23.128,16.803 h 28.588 z"
                 style="fill:#191919;fill-opacity:1;fill-rule:nonzero;stroke:none;stroke-width:7.91179"
                 id="path287652" />
            </g>
            <g
               id="g287658"
               transform="translate(398.6958,556.4736)"
               style="fill:#191919;fill-opacity:1;stroke-width:7.91179">
              <path
                 d="M 0,0 6.485,-19.96 H 27.472 L 10.494,-32.296 16.979,-52.256 0,-39.919 l -16.979,-12.337 6.486,19.96 -16.979,12.336 h 20.987 z"
                 style="fill:#191919;fill-opacity:1;fill-rule:nonzero;stroke:none;stroke-width:7.91179"
                 id="path287656" />
            </g>
            <g
               id="g287662"
               transform="translate(536.6958,556.4736)"
               style="fill:#191919;fill-opacity:1;stroke-width:7.91179">
              <path
                 d="m 0,0 -6.485,-19.96 h -20.987 l 16.978,-12.336 -6.485,-19.96 L 0,-39.919 16.979,-52.256 10.493,-32.296 27.472,-19.96 H 6.485 Z"
                 style="fill:#191919;fill-opacity:1;fill-rule:nonzero;stroke:none;stroke-width:7.91179"
                 id="path287660" />
            </g>
            <g
               id="g287666"
               transform="translate(421.6958,630.3994)"
               style="fill:#191919;fill-opacity:1;stroke-width:7.91179">
              <path
                 d="M 0,0 C 0,2.485 -2.015,4.5 -4.5,4.5 -6.985,4.5 -9,2.485 -9,0 c 0,-2.485 2.015,-4.5 4.5,-4.5 2.485,0 4.5,2.015 4.5,4.5"
                 style="fill:#191919;fill-opacity:1;fill-rule:nonzero;stroke:none;stroke-width:7.91179"
                 id="path287664" />
            </g>
            <g
               id="g287670"
               transform="translate(387.3579,200.6475)"
               style="fill:#191919;fill-opacity:1;stroke-width:7.91179">
              <path
                 d="m 0,0 c 0.104,0 0.255,-0.006 0.453,-0.018 0.198,-0.009 0.338,-0.015 0.421,-0.015 1.581,0 2.805,0.221 3.669,0.662 0.866,0.441 1.422,1.197 1.669,2.267 0.044,0.225 0.066,0.551 0.066,0.98 0,1.119 -0.395,2.006 -1.182,2.662 C 4.307,7.192 3.361,7.521 2.257,7.521 1.752,7.521 1.269,7.452 0.808,7.315 0.5,7.228 0.287,7.042 0.169,6.761 0.051,6.478 -0.027,6.067 -0.066,5.53 -0.022,5.392 0,5.179 0,4.888 Z m -8.807,7.86 v 2.766 H 1.582 3.378 c 1.252,0 2.353,-0.064 3.303,-0.197 3.686,-0.637 5.676,-2.617 5.973,-5.94 0.022,-0.224 0.033,-0.552 0.033,-0.98 0,-1.56 -0.404,-2.829 -1.211,-3.81 C 10.668,-1.281 9.501,-1.998 7.975,-2.451 6.448,-2.904 4.567,-3.145 2.332,-3.172 1.271,-3.078 0.495,-3.031 0,-3.031 V -6.846 C 0,-7.57 0.069,-8.119 0.206,-8.49 0.343,-8.861 0.599,-9.129 0.972,-9.297 1.346,-9.465 1.897,-9.57 2.628,-9.615 v -2.768 H -8.807 v 2.768 c 1.236,0 2.046,0.258 2.431,0.773 0.269,0.373 0.403,0.992 0.403,1.854 v 0.675 11.71 c 0,0.68 -0.108,1.184 -0.325,1.512 -0.217,0.326 -0.516,0.547 -0.898,0.662 -0.382,0.116 -0.918,0.211 -1.611,0.289"
                 style="fill:#191919;fill-opacity:1;fill-rule:nonzero;stroke:none;stroke-width:7.91179"
                 id="path287668" />
            </g>
            <g
               id="g287674"
               transform="translate(416.8789,211.2734)"
               style="fill:#191919;fill-opacity:1;stroke-width:7.91179">
              <path
                 d="M 0,0 H 2.026 L 4.218,-6.846 1.82,-7.792 c -1.027,1.532 -2.134,2.731 -3.323,3.595 -1.19,0.865 -2.578,1.299 -4.165,1.299 -0.818,0 -1.576,-0.17 -2.274,-0.508 -0.697,-0.338 -1.109,-0.856 -1.236,-1.553 0,-1.021 0.553,-1.719 1.657,-2.092 0.301,-0.126 1.162,-0.356 2.582,-0.688 1.419,-0.332 2.357,-0.565 2.814,-0.696 0.296,-0.093 0.838,-0.246 1.626,-0.457 0.789,-0.212 1.452,-0.412 1.99,-0.601 0.538,-0.19 1.063,-0.442 1.573,-0.754 0.511,-0.313 0.942,-0.697 1.294,-1.154 0.873,-1.071 1.309,-2.364 1.309,-3.879 0,-1.248 -0.255,-2.383 -0.766,-3.407 -0.51,-1.025 -1.214,-1.902 -2.112,-2.632 -0.898,-0.731 -1.916,-1.285 -3.053,-1.664 -1.137,-0.379 -2.309,-0.569 -3.518,-0.569 -2.197,0 -4.231,0.598 -6.104,1.795 l -0.469,-1.523 h -2.027 l -2.801,8.502 2.595,0.881 c 0.824,-1.698 1.989,-3.159 3.497,-4.387 1.508,-1.227 3.178,-1.858 5.013,-1.891 2.966,0.231 4.449,1.176 4.449,2.834 0,0.979 -0.462,1.664 -1.385,2.061 -0.483,0.213 -1.342,0.468 -2.578,0.765 -1.236,0.297 -2.446,0.59 -3.629,0.877 -1.183,0.289 -2.248,0.606 -3.192,0.951 -0.945,0.346 -1.645,0.731 -2.101,1.155 -1.307,1.23 -1.994,2.724 -2.06,4.481 0.083,0.819 0.174,1.428 0.272,1.828 0.297,1.243 0.889,2.297 1.776,3.168 0.886,0.871 1.871,1.52 2.953,1.95 1.082,0.427 2.093,0.656 3.031,0.683 1.27,0 2.337,-0.129 3.206,-0.383 0.867,-0.256 1.845,-0.679 2.932,-1.273 z"
                 style="fill:#191919;fill-opacity:1;fill-rule:nonzero;stroke:none;stroke-width:7.91179"
                 id="path287672" />
            </g>
            <g
               id="g287678"
               transform="translate(432.8013,199.4033)"
               style="fill:#191919;fill-opacity:1;stroke-width:7.91179">
              <path
                 d="M 0,0 H 5.06 L 2.563,6.509 Z m -9.823,-8.371 c 1.028,0.1 1.853,0.416 2.476,0.949 0.624,0.531 1.183,1.387 1.677,2.561 L 1.318,11.87 H 6.576 L 13.16,-4.49 c 0.495,-1.246 0.857,-2.078 1.088,-2.496 0.231,-0.418 0.509,-0.7 0.836,-0.848 0.327,-0.148 0.991,-0.328 1.991,-0.537 v -2.768 H 4.722 v 2.772 c 0.291,0.015 0.584,0.035 0.878,0.056 0.294,0.024 0.583,0.063 0.869,0.122 0.285,0.056 0.527,0.154 0.725,0.293 0.198,0.136 0.297,0.328 0.297,0.576 0,0.439 -0.065,0.881 -0.194,1.324 C 7.168,-5.555 6.969,-4.998 6.7,-4.33 6.43,-3.662 6.254,-3.207 6.172,-2.967 H -1.047 L -2.06,-5.662 c -0.176,-0.408 -0.3,-0.869 -0.371,-1.387 0.093,-0.297 0.238,-0.527 0.432,-0.691 0.196,-0.166 0.436,-0.287 0.722,-0.367 0.285,-0.081 0.616,-0.137 0.993,-0.174 0.376,-0.035 0.66,-0.065 0.852,-0.086 v -2.772 H -9.823 Z"
                 style="fill:#191919;fill-opacity:1;fill-rule:nonzero;stroke:none;stroke-width:7.91179"
                 id="path287676" />
            </g>
            <g
               id="g287682"
               transform="translate(449.9448,208.5137)"
               style="fill:#191919;fill-opacity:1;stroke-width:7.91179">
              <path
                 d="M 0,0 V 2.76 H 11.847 V 0 C 11.759,-0.016 11.468,-0.051 10.974,-0.105 10.479,-0.162 10.086,-0.246 9.795,-0.361 9.504,-0.477 9.267,-0.691 9.083,-1.004 8.899,-1.316 8.807,-1.76 8.807,-2.33 v -12.589 c 0,-0.334 -0.022,-0.592 -0.066,-0.773 0.038,-0.518 0.174,-0.879 0.408,-1.088 0.233,-0.209 0.737,-0.33 1.512,-0.364 1.196,0 2.358,0.26 3.484,0.78 1.126,0.519 2.153,1.24 3.081,2.166 0.928,0.926 1.711,1.978 2.348,3.16 l 2.29,-1.178 -3.509,-8.033 H 0 v 2.768 c 1.027,0.072 1.756,0.246 2.188,0.523 0.431,0.277 0.646,0.822 0.646,1.637 L 2.768,-2.463 c 0,0.688 -0.085,1.184 -0.255,1.492 -0.17,0.307 -0.411,0.51 -0.721,0.606 C 1.482,-0.27 0.884,-0.146 0,0"
                 style="fill:#191919;fill-opacity:1;fill-rule:nonzero;stroke:none;stroke-width:7.91179"
                 id="path287680" />
            </g>
            <g
               id="g287686"
               transform="translate(493.8823,205.7461)"
               style="fill:#191919;fill-opacity:1;stroke-width:7.91179">
              <path
                 d="M 0,0 -5.733,-17.481 H -9.548 L -15.29,0.066 v -12.415 c 0,-0.806 0.192,-1.388 0.577,-1.742 0.384,-0.353 1.205,-0.562 2.463,-0.623 v -2.767 h -9.218 v 2.767 c 0.988,0.072 1.708,0.264 2.158,0.578 0.45,0.313 0.676,0.84 0.676,1.582 V 0.305 c 0,0.642 -0.084,1.121 -0.252,1.433 -0.167,0.313 -0.444,0.539 -0.828,0.676 -0.384,0.137 -0.969,0.256 -1.754,0.354 v 2.759 h 10.47 l 4.556,-14.44 4.688,14.44 H 9.112 V 2.768 C 9.024,2.752 8.726,2.717 8.218,2.662 7.71,2.605 7.308,2.521 7.011,2.406 6.714,2.291 6.473,2.076 6.286,1.764 6.099,1.451 6.006,1.008 6.006,0.438 v -12.927 c 0,-0.764 0.196,-1.301 0.589,-1.614 0.392,-0.314 1.232,-0.517 2.517,-0.611 L 9.046,-17.481 H -3.205 v 2.767 c 1.022,0 1.811,0.152 2.369,0.453 0.557,0.303 0.836,0.871 0.836,1.707 z"
                 style="fill:#191919;fill-opacity:1;fill-rule:nonzero;stroke:none;stroke-width:7.91179"
                 id="path287684" />
            </g>
            <g
               id="g287690"
               transform="translate(517.3267,207.3613)"
               style="fill:#191919;fill-opacity:1;stroke-width:7.91179">
              <path
                 d="m 0,0 v 2.701 c 1.681,0.033 3.113,0.141 4.296,0.322 1.183,0.182 2.586,0.479 4.206,0.889 h 1.688 v -17.679 c 0,-0.752 0.079,-1.271 0.235,-1.56 0.157,-0.289 0.438,-0.51 0.845,-0.664 0.368,-0.149 1.043,-0.26 2.026,-0.338 0.269,0.045 0.687,0.066 1.253,0.066 v -2.834 H 0 v 2.768 c 1.049,0 2.016,0.113 2.9,0.338 0.445,0.111 0.725,0.187 0.84,0.232 0.115,0.043 0.224,0.182 0.325,0.416 0.102,0.233 0.153,0.623 0.153,1.174 v 12.554 c 0,0.467 -0.078,0.775 -0.235,0.927 C 3.827,-0.537 3.49,-0.41 2.974,-0.305 2.342,-0.178 1.351,-0.076 0,0"
                 style="fill:#191919;fill-opacity:1;fill-rule:nonzero;stroke:none;stroke-width:7.91179"
                 id="path287688" />
            </g>
            <g
               id="g287694"
               transform="translate(538.4526,211.2734)"
               style="fill:#191919;fill-opacity:1;stroke-width:7.91179">
              <path
                 d="m 0,0 h 11.403 c 0.708,0 1.236,0.1 1.585,0.297 0.348,0.199 0.608,0.586 0.778,1.162 H 16.46 L 15.554,-4.688 H 3.304 v -4.151 c 0.774,0.576 1.687,1.02 2.738,1.326 1.052,0.309 2.152,0.462 3.3,0.462 1.533,0 2.982,-0.274 4.35,-0.819 1.368,-0.547 2.479,-1.373 3.336,-2.481 0.857,-1.107 1.31,-2.47 1.36,-4.089 0,-1.594 -0.298,-2.971 -0.894,-4.135 -0.596,-1.166 -1.403,-2.113 -2.421,-2.848 -1.018,-0.732 -2.161,-1.271 -3.429,-1.615 -1.269,-0.342 -2.597,-0.514 -3.986,-0.514 -1.351,0 -2.695,0.158 -4.031,0.473 -1.337,0.316 -2.473,0.873 -3.409,1.674 -0.936,0.801 -1.424,1.875 -1.462,3.218 0.258,0.961 0.603,1.713 1.036,2.254 0.434,0.541 1.1,0.813 2,0.813 0.806,0 1.512,-0.258 2.118,-0.776 0.606,-0.515 0.909,-1.203 0.909,-2.06 0,-0.197 -0.044,-0.522 -0.131,-0.973 0,-0.511 0.214,-0.918 0.642,-1.22 0.428,-0.303 0.978,-0.471 1.648,-0.502 0.763,0.027 1.489,0.214 2.179,0.564 0.689,0.348 1.264,0.904 1.726,1.67 0.461,0.764 0.702,1.738 0.724,2.926 0,0.863 -0.169,1.695 -0.506,2.494 -0.338,0.801 -0.828,1.451 -1.47,1.953 -0.643,0.504 -1.389,0.756 -2.24,0.756 -0.879,0 -1.739,-0.254 -2.578,-0.762 -0.841,-0.51 -1.568,-1.312 -2.184,-2.41 L 0,-12.655 Z"
                 style="fill:#191919;fill-opacity:1;fill-rule:nonzero;stroke:none;stroke-width:7.91179"
                 id="path287692" />
            </g>
          </g>
        </g>
      </g>
    </g>
  </g>
</svg>
