<?xml version="1.0" encoding="UTF-8" standalone="no"?>
<!-- Created with Inkscape (http://www.inkscape.org/) -->

<svg
   width="16.700001"
   height="17.200001"
   viewBox="0 0 4.4185417 4.5508333"
   version="1.1"
   id="svg24006"
   inkscape:version="1.1.2 (b8e25be833, 2022-02-05)"
   sodipodi:docname="cart-icon.svg"
   xmlns:inkscape="http://www.inkscape.org/namespaces/inkscape"
   xmlns:sodipodi="http://sodipodi.sourceforge.net/DTD/sodipodi-0.dtd"
   xmlns="http://www.w3.org/2000/svg"
   xmlns:svg="http://www.w3.org/2000/svg">
  <sodipodi:namedview
     id="namedview24008"
     pagecolor="#505050"
     bordercolor="#eeeeee"
     borderopacity="1"
     inkscape:pageshadow="0"
     inkscape:pageopacity="0"
     inkscape:pagecheckerboard="0"
     inkscape:document-units="mm"
     showgrid="false"
     units="px"
     inkscape:zoom="22.627417"
     inkscape:cx="5.9883105"
     inkscape:cy="6.5186406"
     inkscape:window-width="1920"
     inkscape:window-height="1001"
     inkscape:window-x="-9"
     inkscape:window-y="-9"
     inkscape:window-maximized="1"
     inkscape:current-layer="layer1"
     height="16.793px"
     width="16.7px" />
  <defs
     id="defs24003" />
  <g
     inkscape:label="Layer 1"
     inkscape:groupmode="layer"
     id="layer1">
    <path
       fill="#6563ff"
       d="m 1.6157814,3.8162012 a 0.35556552,0.35556552 0 1 0 0.3555399,0.35556 0.35556552,0.35556552 0 0 0 -0.3555399,-0.35556 z m 2.4889599,-0.71114 H 1.2602314 a 0.23704384,0.23704384 0 0 1 0,-0.47408 h 2.0127599 a 0.71426003,0.71426003 0 0 0 0.68382,-0.51576 l 0.37581,-1.31542999 a 0.23706502,0.23706502 0 0 0 -0.22788,-0.30221 H 1.1983814 A 0.71270976,0.71270976 0 0 0 0.53049129,0.02350125 h -0.21848 a 0.2370437,0.2370437 0 0 0 0,0.47407996 h 0.21848 a 0.23813172,0.23813172 0 0 1 0.22788,0.17189 l 0.037,0.12913 v 8e-4 L 1.1843014,2.1605412 a 0.71114527,0.71114527 0 0 0 0.0764,1.41822 h 2.8444999 a 0.237045,0.237045 0 0 0 0,-0.47409 z m -0.31428,-2.13338999 -0.28942,1.01321999 a 0.23812934,0.23812934 0 0 1 -0.22805,0.172 h -1.59688 l -0.0603,-0.21149 -0.27808,-0.97372999 z m -0.27832,2.84452999 a 0.35556552,0.35556552 0 1 0 0.35554,0.35556 0.35556552,0.35556552 0 0 0 -0.35554,-0.35556 z"
       id="path290856"
       style="display:inline;mix-blend-mode:normal;fill:#ffffff;fill-opacity:1;stroke-width:0.264583"
       inkscape:export-filename="D:\DARICK T FISHER\1.png"
       inkscape:export-xdpi="200"
       inkscape:export-ydpi="200" />
  </g>
</svg>
