<?xml version="1.0" encoding="UTF-8" standalone="no"?>
<!-- Created with Inkscape (http://www.inkscape.org/) -->

<svg
   width="16.976"
   height="16.976"
   viewBox="0 0 4.4915664 4.4915667"
   version="1.1"
   id="svg18232"
   inkscape:version="1.1.2 (b8e25be833, 2022-02-05)"
   sodipodi:docname="twiter-icon.svg"
   xmlns:inkscape="http://www.inkscape.org/namespaces/inkscape"
   xmlns:sodipodi="http://sodipodi.sourceforge.net/DTD/sodipodi-0.dtd"
   xmlns="http://www.w3.org/2000/svg"
   xmlns:svg="http://www.w3.org/2000/svg">
  <sodipodi:namedview
     id="namedview18234"
     pagecolor="#505050"
     bordercolor="#eeeeee"
     borderopacity="1"
     inkscape:pageshadow="0"
     inkscape:pageopacity="0"
     inkscape:pagecheckerboard="0"
     inkscape:document-units="mm"
     showgrid="false"
     units="px"
     inkscape:zoom="23.775084"
     inkscape:cx="5.6151221"
     inkscape:cy="10.452119"
     inkscape:window-width="1920"
     inkscape:window-height="1001"
     inkscape:window-x="-9"
     inkscape:window-y="-9"
     inkscape:window-maximized="1"
     inkscape:current-layer="layer1"
     height="16.976px" />
  <defs
     id="defs18229">
    <clipPath
       clipPathUnits="userSpaceOnUse"
       id="clipPath289991-4-8-8-1-9-9-8-8-31-7-6-0-4">
      <path
         d="M 0,734 H 936 V 0 H 0 Z"
         id="path289989-3-1-4-1-2-6-6-9-9-3-7-3-4" />
    </clipPath>
  </defs>
  <g
     inkscape:label="Layer 1"
     inkscape:groupmode="layer"
     id="layer1">
    <path
       d="M 4.3351069,0.86797793 C 4.3053645,0.8373111 4.2596043,0.82857964 4.2205825,0.84642625 l -0.016495,0.007647 c -0.014011,0.006628 -0.028023,0.0128134 -0.042161,0.0192548 0.041016,-0.0652479 0.073585,-0.1350783 0.096074,-0.2073 C 4.2704828,0.6262458 4.256727,0.58268044 4.2238,0.55689799 4.1907458,0.53120267 4.1451701,0.52846498 4.1093773,0.55020965 3.994349,0.61993987 3.8838625,0.67010253 3.7696376,0.70511077 3.5972525,0.53825023 3.3624593,0.43505597 3.1032669,0.43505597 c -0.5289567,0 -0.9577127,0.42776603 -0.9577127,0.95552023 0,4.272e-4 0,0.0204 0,0.050305 L 2.0448439,1.4332307 C 1.0646429,1.3175657 0.78559257,0.65976448 0.77400125,0.63141206 0.7552769,0.58417103 0.71394324,0.54968397 0.66401803,0.53929865 0.61421379,0.5287117 0.56249886,0.54441961 0.52640668,0.58028988 0.50647229,0.60031191 0.33093451,0.78556901 0.33093451,1.1396153 c 0,0.2522606 0.11270287,0.456845 0.25858089,0.6159591 C 0.5215661,1.7141984 0.48194593,1.6807064 0.48093965,1.6798454 0.43444685,1.6393594 0.36793107,1.6310124 0.31268149,1.6589334 c -0.0550266,0.028051 -0.0875077,0.086675 -0.0819601,0.1481549 0.00191,0.021231 0.044837,0.423743 0.51092025,0.7277034 l -0.0849916,0.015429 c -0.0515239,0.00956 -0.0945645,0.044695 -0.11371557,0.093351 -0.0190424,0.04877 -0.0115914,0.1037937 0.0198713,0.1456421 0.0105724,0.014156 0.20747735,0.2695515 0.63501683,0.4163988 -0.22833522,0.07592 -0.54206378,0.1468544 -0.91728968,0.1468544 -0.0592937,0 -0.11321239,0.034556 -0.13770684,0.088485 -0.0245837,0.053939 -0.0152215,0.1171824 0.0238833,0.1616324 0.0162405,0.018615 0.40970045,0.453925 1.42437602,0.453925 1.6848801,0 2.4699021,-1.5605195 2.4699021,-2.6151091 v -0.050306 c 0,-0.014854 -0.00191,-0.029457 -0.00255,-0.044184 C 4.2693342,1.1435328 4.348677,0.99095384 4.3525048,0.98340547 4.3715467,0.94521532 4.3644792,0.89910756 4.3347986,0.86854335 Z"
       id="path88216"
       style="display:inline;mix-blend-mode:normal;fill:#ffffff;fill-opacity:1;stroke-width:0.264584" />
  </g>
</svg>
